<svg xmlns="http://www.w3.org/2000/svg" viewBox="0 0 64 64" role="img" aria-label="Industry network">
  <defs>
    <linearGradient id="favicon-bg" x1="8" y1="6" x2="56" y2="60" gradientUnits="userSpaceOnUse">
      <stop offset="0" stop-color="#67cfff" />
      <stop offset="0.48" stop-color="#0071e3" />
      <stop offset="1" stop-color="#0759bd" />
    </linearGradient>
    <radialGradient id="favicon-glow" cx="0" cy="0" r="1" gradientTransform="matrix(40 0 0 40 18 15)" gradientUnits="userSpaceOnUse">
      <stop offset="0" stop-color="#ffffff" stop-opacity="0.38" />
      <stop offset="0.62" stop-color="#ffffff" stop-opacity="0.08" />
      <stop offset="1" stop-color="#ffffff" stop-opacity="0" />
    </radialGradient>
  </defs>
  <rect width="64" height="64" rx="16" fill="url(#favicon-bg)" />
  <rect width="64" height="64" rx="16" fill="url(#favicon-glow)" />
  <path
    d="M13 18.5h38M13 32h38M13 45.5h38M18.5 13v38M32 13v38M45.5 13v38"
    stroke="#ffffff"
    stroke-opacity="0.11"
    stroke-width="1.2"
  />
  <path
    d="M14.5 43.5 24.5 33 34.5 39 46.5 23.5 53 35.5"
    fill="none"
    stroke="#073c86"
    stroke-linecap="round"
    stroke-linejoin="round"
    stroke-opacity="0.2"
    stroke-width="7"
  />
  <path
    d="M14.5 43.5 24.5 33 34.5 39 46.5 23.5 53 35.5"
    fill="none"
    stroke="#ffffff"
    stroke-linecap="round"
    stroke-linejoin="round"
    stroke-opacity="0.78"
    stroke-width="3.6"
  />
  <path
    d="M24.5 33 31.5 22.5 46.5 23.5"
    fill="none"
    stroke="#c8f3ff"
    stroke-linecap="round"
    stroke-linejoin="round"
    stroke-opacity="0.58"
    stroke-width="2.4"
  />
  <circle cx="14.5" cy="43.5" r="5.1" fill="#ffffff" />
  <circle cx="24.5" cy="33" r="4.9" fill="#ffffff" />
  <circle cx="31.5" cy="22.5" r="4" fill="#d7f7ff" />
  <circle cx="34.5" cy="39" r="5.4" fill="#ffffff" />
  <circle cx="46.5" cy="23.5" r="5.2" fill="#ffffff" />
  <circle cx="53" cy="35.5" r="4.4" fill="#d7f7ff" />
  <circle cx="34.5" cy="39" r="2" fill="#0071e3" fill-opacity="0.82" />
  <circle cx="46.5" cy="23.5" r="1.9" fill="#0071e3" fill-opacity="0.72" />
</svg>
